<svg xmlns="http://www.w3.org/2000/svg" xmlns:xlink="http://www.w3.org/1999/xlink" width="100" height="96" viewBox="0 0 100 96">
  <defs>
    <clipPath id="clip-path">
      <rect id="Rectangle_2012" data-name="Rectangle 2012" width="46.539" height="52.882" fill="#fff"/>
    </clipPath>
  </defs>
  <g id="Group_5899" data-name="Group 5899" transform="translate(-713 -3904)">
    <g id="Group_5893" data-name="Group 5893">
      <g id="Group_5807" data-name="Group 5807" transform="translate(0 198)">
        <g id="Rectangle_10" data-name="Rectangle 10" transform="translate(713 3706)" fill="#fff" stroke="#707070" stroke-width="1" opacity="0">
          <rect width="100" height="96" rx="35" stroke="none"/>
          <rect x="0.5" y="0.5" width="99" height="95" rx="34.5" fill="none"/>
        </g>
        <g id="Group_5806" data-name="Group 5806" transform="translate(739.44 3727.818)">
          <g id="Group_5805" data-name="Group 5805" transform="translate(0 0)" clip-path="url(#clip-path)">
            <path id="Path_19" data-name="Path 19" d="M24.86,6.4A23.117,23.117,0,0,1,35.283,9.684l3.366-4.807a.533.533,0,0,1,.738-.129L41.117,5.96a.53.53,0,0,1,.131.738l-3.367,4.809A23.269,23.269,0,1,1,21.687,6.4V3.174H19.043a.533.533,0,0,1-.53-.53V.53a.533.533,0,0,1,.53-.53H27.5a.533.533,0,0,1,.531.53V2.644a.533.533,0,0,1-.531.53H24.86ZM17.646,39.8l-.007,0-.022-.014a11.666,11.666,0,0,1-4.5-4.492l0-.007-.012-.022-.014-.024h0a1.057,1.057,0,0,0-1.974.529,1.039,1.039,0,0,0,.123.495h0l.006.009a13.808,13.808,0,0,0,5.37,5.375l.016.009a1.046,1.046,0,0,0,.511.132,1.058,1.058,0,0,0,.511-1.984M11.634,29.614v-.086A11.636,11.636,0,0,1,17.4,19.565l.022-.014.022-.012,0,0a1.057,1.057,0,0,0-1.058-1.831l-.017.011-.024.015a13.736,13.736,0,0,0-6.831,11.8v.081h0a1.057,1.057,0,0,0,2.112,0m11.548-20.1a20.1,20.1,0,1,0,11.779,3.751l-.342-.238A20.019,20.019,0,0,0,23.467,9.518Zm1.677,15.05V14.28a.53.53,0,0,0-.529-.53H22.214a.532.532,0,0,0-.529.53V24.567a5.29,5.29,0,0,0,0,10.094v2.884a.531.531,0,0,0,.529.529H24.33a.53.53,0,0,0,.529-.529V34.659a5.29,5.29,0,0,0,0-10.09" transform="translate(0 -0.001)" fill="#fff" fill-rule="evenodd"/>
          </g>
        </g>
      </g>
    </g>
  </g>
</svg>
