<svg xmlns="http://www.w3.org/2000/svg" xmlns:xlink="http://www.w3.org/1999/xlink" width="100" height="96" viewBox="0 0 100 96">
  <defs>
    <clipPath id="clip-path">
      <rect id="Rectangle_2006" data-name="Rectangle 2006" width="57.396" height="57.397" fill="#fff"/>
    </clipPath>
  </defs>
  <g id="Group_5894" data-name="Group 5894" transform="translate(-168 -3415)">
    <g id="Group_5888" data-name="Group 5888">
      <g id="Group_5794" data-name="Group 5794" transform="translate(0 194)">
        <g id="Rectangle_9" data-name="Rectangle 9" transform="translate(168 3221)" fill="#fff" stroke="#707070" stroke-width="1" opacity="0">
          <rect width="100" height="96" rx="35" stroke="none"/>
          <rect x="0.5" y="0.5" width="99" height="95" rx="34.5" fill="none"/>
        </g>
        <g id="Group_5790" data-name="Group 5790" transform="translate(189.561 3240.561)">
          <g id="Group_5789" data-name="Group 5789" transform="translate(0 0)" clip-path="url(#clip-path)">
            <path id="Path_13" data-name="Path 13" d="M28.7,0A28.7,28.7,0,1,1,0,28.7,28.7,28.7,0,0,1,28.7,0m5.655,17.545c.32,2.833,1.733,2.674-.059,2.835-1.889.166-.985-.185-2.107,1.55-.692,1.07-.08.161-.76.964l-.757.949c-.049.082-.1.2-.143.283-.7,1.4-.424,2.154-2.287,2.828l-.131,2.609-.645.094c-.069-.232-.175-.524-.285-1H22.273c-.414,1.783-.8,1.173-.853,3.411,1.165.421.876-.023,1.28,1.7h1.28v-1.7c2.935,0,1.759-.342,1.72,2.183l1.689-.478V36.33h2.558c.443-1.1.077-.452,1.118-1.073.069-.042.189-.108.258-.14l.724-.169c1.161.016-.224-.045.748.2l.649.182c.624.134,1,.1,1.527.24,2.43.629.211,1.235,4.779,1.616-.814,3.5,2.851,1.309,3.062,3.653l.059.489c-.189,1.218-.483.618-2.11,3.261l-.682,1.025c-.773.921-1.612.956-3.573,2.819l-3.248,2.747a6.649,6.649,0,0,1-2.593,1.259c-.062.012-.13.026-.194.032.013-.055.028-.112.042-.165.551-2.028,1.467-2.624,1.165-5.294-.2-1.816-.157-.8-1.6-2.711-1.087-1.436-.721-1.6-1.836-2,.082-3.715,1.419-3.306,1.706-3.411v-.85c-3.068,0-2.083-.374-4.4-1.567l-1.8-.759c-1.887-.518-1.617.151-4.105-1.008-1.585-.738-1.583-.52-1.631-2.634-1.82.659-.464.671-2.13.852l-.971-2.013c-.046-.081-.112-.185-.158-.269l-.972-2.011a7.889,7.889,0,0,0-.753-1.268c-.155-.184,1.245,4.347,1.1,4.316s-1.984-4.433-2.21-4.694c0-4.939,1.023-7.488.764-9.274,0-.007-.5-.161-.181-1.84a16.519,16.519,0,0,0,.394-4.259c-.238.161-.694.393-1.072.634-.678.436-2.068,1.992-2.848,2.592A24.107,24.107,0,0,0,44.745,46.689l1.9-1.893a24.02,24.02,0,0,0,1.728-2.16,5.349,5.349,0,0,0,.49-1.465l.868-1.351c1.362-2.271-.292-1.785-2.735-1.785,0-8.772-1.295-4.274,1.99-10.811.132-.263.679-1.691.7-1.826.324-1.735.256-.19-.266-1.678-.008-.023-.294-.787-.355-.949a2.832,2.832,0,0,1-.244-.626.585.585,0,0,0-.126-.306c.726-1.8.656-.159,1.28-1.7-.454-.522-.054,0-.5-.776L48.249,17.6c-2.736-2.605-1.042-2.955-1.153-4.476A24.266,24.266,0,0,0,42.94,9.248a4.248,4.248,0,0,1,.217,1.511H41.879c-.337-1.262-.173-.692-.853-1.706a3.584,3.584,0,0,1,1.236-.285A24.491,24.491,0,0,0,39.609,7.2c.707,1.177-.286.806-.286,5.266-2.206-.8-2.913-2.979-3.774-4.561C34.147,5.32,33.735,5.362,32.6,4.91q-.885-.146-1.791-.224c.027,1.381.08.491,1.552,1.948,1.533,1.516,2.65,1.844,1.782,3.379a10.1,10.1,0,0,0-.964,1.675c-.367.94-.325.778.549.675,3.415-.4.877.266,2.7,2.566.421.535.1.134.5.786.265.436,1.05,1.725,1.1,1.852.508,1.3.381-.012.013,1.716-1.787-.2-.667-.058-2.022-.794l-.088-.2c.039-1.336.3-.825-1.579-.74M26.863,31.513l2.125.659.958,1.6c.467-1.157-1.355-.853,4.26-.853-1.369-1.191-1.712-.661-3.2-1.11-.105-.032-.217-.073-.316-.111l-2.315-1.116c-1.273.063-.981-.169-1.509.93m24.394-9.675-.115,2.785,1.292-.162c-.131-.736-.3-1.459-.491-2.169a5.217,5.217,0,0,1-.686-.454M25.494,11.552l-.057,1.98c2.451.267,4.509,3.113,4.509.209,0-2.423.045-2.716-2.558-3.411Z" transform="translate(0 0)" fill="#fff" fill-rule="evenodd"/>
          </g>
        </g>
      </g>
    </g>
  </g>
</svg>
