<svg xmlns="http://www.w3.org/2000/svg" xmlns:xlink="http://www.w3.org/1999/xlink" width="100" height="96" viewBox="0 0 100 96">
  <defs>
    <clipPath id="clip-path">
      <rect id="Rectangle_2009" data-name="Rectangle 2009" width="53.983" height="43.484" fill="#fff"/>
    </clipPath>
  </defs>
  <g id="Group_5897" data-name="Group 5897" transform="translate(-713 -3415)">
    <g id="Group_5793" data-name="Group 5793" transform="translate(0 194)">
      <g id="Rectangle_10" data-name="Rectangle 10" transform="translate(713 3221)" fill="#fff" stroke="#707070" stroke-width="1" opacity="0">
        <rect width="100" height="96" rx="35" stroke="none"/>
        <rect x="0.5" y="0.5" width="99" height="95" rx="34.5" fill="none"/>
      </g>
      <g id="Group_5798" data-name="Group 5798" transform="translate(736.102 3247.666)">
        <g id="Group_5798-2" data-name="Group 5798" transform="translate(0 0)" clip-path="url(#clip-path)">
          <path id="Path_16" data-name="Path 16" d="M32.535,12.811,32.51,12.8l-.027-.016L20.5,5.835h0a.954.954,0,0,0-.952,0,.929.929,0,0,0-.468.8v13.95a.929.929,0,0,0,.468.8.946.946,0,0,0,.952-.006h0L32.535,14.4l.027-.02h0l.02-.016h0l.021-.017h0l.02-.016,0,0,.016-.015.008-.006.013-.011.007-.01.012-.011.012-.011.007-.01.012-.01.007-.009.016-.016,0-.006.013-.017,0,0,.018-.022.016-.025.015-.021.006-.006.009-.019,0-.006.01-.018.008-.012.008-.016.006-.01.006-.013.008-.012,0-.011.008-.018.007-.006.006-.026,0,0,.01-.021v0l.008-.027v0l.008-.025v0l.007-.027,0-.006,0-.02,0-.009v-.032l0-.017,0-.016,0-.013v-.03l0-.02v-.008l0-.025v-.068l0-.025v-.006l0-.028v0l0-.026v-.007l0-.021,0-.011v-.03l0-.019,0-.012-.006-.015,0-.017,0-.013,0-.016,0-.013-.006-.019,0-.007-.008-.02v-.008l-.011-.021v-.007l-.011-.022,0,0-.01-.024,0,0-.011-.025-.016-.027h0l0-.007-.02-.035,0-.006-.006-.006-.012-.017,0-.008-.015-.018-.006-.006L32.747,13l0-.007-.015-.013-.008-.012-.01-.008-.009-.012-.012-.011-.012-.01,0-.006,0-.006-.013-.01-.008-.006-.016-.016-.007,0-.017-.017-.006-.006-.019-.013h0l-.021-.016h0ZM5.726,32.034H48.258a5.725,5.725,0,1,1,0,11.45H5.726a5.725,5.725,0,1,1,0-11.45m0,4.307a1.418,1.418,0,1,0,0,2.835h4.446a3.273,3.273,0,0,0,5.9,0H48.258a1.418,1.418,0,1,0,0-2.835H16.071a3.274,3.274,0,0,0-5.9,0H5.726ZM37.641,10.957a3.089,3.089,0,0,1-.09,5.344L19.457,26.791a3.07,3.07,0,0,1-4.609-2.721l0-20.934A3.086,3.086,0,0,1,16.386.413,3.053,3.053,0,0,1,19.5.444Z" transform="translate(0 0)" fill="#fff" fill-rule="evenodd"/>
        </g>
      </g>
    </g>
  </g>
</svg>
