<svg xmlns="http://www.w3.org/2000/svg" xmlns:xlink="http://www.w3.org/1999/xlink" width="100" height="96" viewBox="0 0 100 96">
  <defs>
    <clipPath id="clip-path">
      <rect id="Rectangle_2008" data-name="Rectangle 2008" width="58.096" height="52.286" fill="#fff"/>
    </clipPath>
  </defs>
  <g id="Group_5895" data-name="Group 5895" transform="translate(-168 -3648)">
    <g id="Group_5797" data-name="Group 5797" transform="translate(0 197)">
      <g id="Rectangle_9" data-name="Rectangle 9" transform="translate(168 3451)" fill="#fff" stroke="#707070" stroke-width="1" opacity="0">
        <rect width="100" height="96" rx="35" stroke="none"/>
        <rect x="0.5" y="0.5" width="99" height="95" rx="34.5" fill="none"/>
      </g>
      <g id="Group_5796" data-name="Group 5796" transform="translate(189.211 3472.991)">
        <g id="Group_5795" data-name="Group 5795" transform="translate(0 0)" clip-path="url(#clip-path)">
          <path id="Path_15" data-name="Path 15" d="M16.747,15H27.2a.593.593,0,0,1,.581.581v1.161a.6.6,0,0,1-.581.582H16.747a.6.6,0,0,1-.582-.582V15.585A.582.582,0,0,1,16.747,15M39.985,8.033h3.693a.61.61,0,0,1,.579.581V9.775a.645.645,0,0,1-.579.581H39.985a.61.61,0,0,1-.579-.581V8.614a.581.581,0,0,1,.579-.581m-31.373,0H19.07a.589.589,0,0,1,.582.581V9.775a.6.6,0,0,1-.582.581H8.612a.588.588,0,0,1-.579-.581V8.614a.582.582,0,0,1,.579-.581m0,6.971H13.26a.59.59,0,0,1,.582.581v1.161a.6.6,0,0,1-.582.582H8.612a.59.59,0,0,1-.579-.582V15.585A.582.582,0,0,1,8.612,15M34.856,42.991H56.348a1.768,1.768,0,0,0,1.748-1.75V1.749A1.758,1.758,0,0,0,56.348,0H1.748A1.75,1.75,0,0,0,0,1.749V41.241a1.76,1.76,0,0,0,1.748,1.75H23.24a9.3,9.3,0,0,1-9.216,9.294H44.073a9.294,9.294,0,0,1-9.217-9.294M4.091,3.384a.706.706,0,0,0-.706.705V35.316a.716.716,0,0,0,.706.7H54.005a.724.724,0,0,0,.706-.7V4.09a.714.714,0,0,0-.706-.705ZM22.557,8.033h7.75A3.3,3.3,0,0,1,33.6,5.709,3.623,3.623,0,0,1,37.08,9.194,3.623,3.623,0,0,1,33.6,12.68a3.3,3.3,0,0,1-3.289-2.324H28.946V12.1a.584.584,0,0,1-.581.581H27.2a.583.583,0,0,1-.581-.581V10.356H25.461V12.1a.584.584,0,0,1-.581.581H23.719a.585.585,0,0,1-.582-.581V10.356h-.579a.584.584,0,0,1-.581-.581V8.614a.581.581,0,0,1,.581-.581m11.039,0a1.161,1.161,0,1,1-1.163,1.161A1.161,1.161,0,0,1,33.6,8.033M30.69,21.975h8.134a.6.6,0,0,1,.582.581v1.163a.61.61,0,0,1-.582.581H30.69a.6.6,0,0,1-.581-.581V22.556a.583.583,0,0,1,.581-.581m-4.648,0H27.2a.587.587,0,0,1,.581.581v1.163a.592.592,0,0,1-.581.581H26.041a.587.587,0,0,1-.581-.581V22.556a.584.584,0,0,1,.581-.581m-17.429,0h7.751a3.486,3.486,0,1,1,0,2.324H15v1.743a.582.582,0,0,1-.582.581H13.26a.582.582,0,0,1-.581-.581V24.3H11.517v1.743a.582.582,0,0,1-.579.581H9.775a.583.583,0,0,1-.581-.581V24.3H8.612a.583.583,0,0,1-.579-.581V22.556a.583.583,0,0,1,.579-.581m11.04,0a1.162,1.162,0,1,1-1.163,1.163,1.162,1.162,0,0,1,1.163-1.163M30.69,15h1.161a.587.587,0,0,1,.582.581v1.161a.592.592,0,0,1-.582.582H30.69a.588.588,0,0,1-.581-.582V15.585A.582.582,0,0,1,30.69,15m4.648,0H49.484a.6.6,0,0,1,.579.581v1.161a.614.614,0,0,1-.579.582H35.338a.6.6,0,0,1-.582-.582V15.585A.583.583,0,0,1,35.338,15" transform="translate(0 0.001)" fill="#fff" fill-rule="evenodd"/>
        </g>
      </g>
    </g>
  </g>
</svg>
