<svg xmlns="http://www.w3.org/2000/svg" xmlns:xlink="http://www.w3.org/1999/xlink" width="100" height="96" viewBox="0 0 100 96">
  <defs>
    <clipPath id="clip-path">
      <rect id="Rectangle_2010" data-name="Rectangle 2010" width="42.519" height="42.517" transform="translate(0 0)" fill="#fff"/>
    </clipPath>
  </defs>
  <g id="Group_5898" data-name="Group 5898" transform="translate(-713 -3647)">
    <g id="Group_5892" data-name="Group 5892">
      <g id="Group_5801" data-name="Group 5801" transform="translate(0 196)">
        <g id="Rectangle_10" data-name="Rectangle 10" transform="translate(713 3451)" fill="#fff" stroke="#707070" stroke-width="1" opacity="0">
          <rect width="100" height="96" rx="35" stroke="none"/>
          <rect x="0.5" y="0.5" width="99" height="95" rx="34.5" fill="none"/>
        </g>
        <g id="Group_5800" data-name="Group 5800" transform="translate(742 3478)">
          <g id="Group_5799" data-name="Group 5799" clip-path="url(#clip-path)">
            <path id="Path_17" data-name="Path 17" d="M16.815,34.612a2.554,2.554,0,1,1,3.612,3.611l-.951.952A11.405,11.405,0,0,1,3.28,23.113c-.007-.007,6.37-6.373,7.18-7.182a11.4,11.4,0,0,1,16.064.063A2.553,2.553,0,1,1,22.913,19.6v0a6.29,6.29,0,0,0-8.85-.058L6.9,26.715a6.3,6.3,0,0,0,8.967,8.848ZM25.7,7.905l.951-.952a6.3,6.3,0,0,1,8.968,8.85l-7.167,7.166a6.289,6.289,0,0,1-8.849-.058l0,0a2.553,2.553,0,0,0-3.611,3.611,11.4,11.4,0,0,0,16.065.063c.809-.809,7.188-7.176,7.181-7.183a11.405,11.405,0,0,0-16.2-16.062l-.951.952A2.553,2.553,0,1,0,25.7,7.905" fill="#fff" fill-rule="evenodd"/>
          </g>
        </g>
      </g>
    </g>
  </g>
</svg>
