<svg xmlns="http://www.w3.org/2000/svg" xmlns:xlink="http://www.w3.org/1999/xlink" width="100" height="96" viewBox="0 0 100 96">
  <defs>
    <clipPath id="clip-path">
      <rect id="Rectangle_2011" data-name="Rectangle 2011" width="54.965" height="50.568" fill="#fff"/>
    </clipPath>
  </defs>
  <g id="Group_5896" data-name="Group 5896" transform="translate(-168 -3904)">
    <g id="Group_5890" data-name="Group 5890">
      <g id="Group_5804" data-name="Group 5804" transform="translate(0 198)">
        <g id="Rectangle_9" data-name="Rectangle 9" transform="translate(168 3706)" fill="#fff" stroke="#707070" stroke-width="1" opacity="0">
          <rect width="100" height="96" rx="35" stroke="none"/>
          <rect x="0.5" y="0.5" width="99" height="95" rx="34.5" fill="none"/>
        </g>
        <g id="Group_5803" data-name="Group 5803" transform="translate(190.777 3728.274)">
          <g id="Group_5802" data-name="Group 5802" transform="translate(0 0)" clip-path="url(#clip-path)">
            <path id="Path_18" data-name="Path 18" d="M8.245,7.694h7.7a.553.553,0,0,1,.549.551v7.694a.551.551,0,0,1-.549.549h-7.7a.551.551,0,0,1-.549-.549V8.245a.552.552,0,0,1,.549-.551m4.4,13.192h5.5a.559.559,0,0,1,.551.549v1.1a.567.567,0,0,1-.551.551h-5.5a.559.559,0,0,1-.549-.551v-1.1a.551.551,0,0,1,.549-.549m-4.4,0h1.1a.555.555,0,0,1,.549.549v1.1a.56.56,0,0,1-.549.551h-1.1a.556.556,0,0,1-.549-.551v-1.1a.551.551,0,0,1,.549-.549m28.682-6.6H46.72a.557.557,0,0,1,.549.549v1.1a.564.564,0,0,1-.549.549H36.927a.557.557,0,0,1-.549-.549v-1.1a.551.551,0,0,1,.549-.549m-7.7,0h4.4a.553.553,0,0,1,.549.549v1.1a.555.555,0,0,1-.549.549h-4.4a.553.553,0,0,1-.549-.549v-1.1a.551.551,0,0,1,.549-.549m-7.694,0h4.4a.553.553,0,0,1,.549.549v1.1a.554.554,0,0,1-.549.549h-4.4a.553.553,0,0,1-.551-.549v-1.1a.552.552,0,0,1,.551-.549m20.887-6.6H38.575a.56.56,0,0,0-.548.551v1.1a.554.554,0,0,0,.548.549h3.848a.551.551,0,0,0,.549-.549v-1.1a.56.56,0,0,0-.549-.551m-11.543,0H21.536a.556.556,0,0,0-.549.551v1.1a.553.553,0,0,0,.549.549h9.345a.551.551,0,0,0,.549-.549v-1.1a.554.554,0,0,0-.549-.551m3.3,0h1.1a.553.553,0,0,1,.549.551v1.1a.553.553,0,0,1-.549.549h-1.1a.551.551,0,0,1-.549-.549v-1.1a.552.552,0,0,1,.549-.551m-6.7,32.273a10.6,10.6,0,0,1,10.6,10.6H52.627a2.345,2.345,0,0,0,2.339-2.337V2.341A2.347,2.347,0,0,0,52.627,0H2.339A2.347,2.347,0,0,0,0,2.341V48.23a2.346,2.346,0,0,0,2.339,2.337H16.883a10.6,10.6,0,0,1,10.6-10.6M51.6,46.484a1.1,1.1,0,0,0,.07-.384V4.465A1.183,1.183,0,0,0,50.5,3.3H4.468A1.176,1.176,0,0,0,3.3,4.465V46.1a1.147,1.147,0,0,0,.074.4L8.59,44.783a19.838,19.838,0,0,1,1.432-3.461L7.4,36.12A24.86,24.86,0,0,1,13.026,30.5l5.193,2.62a19.731,19.731,0,0,1,3.457-1.436L23.5,26.152a24.946,24.946,0,0,1,7.954,0l1.816,5.524a19.738,19.738,0,0,1,3.459,1.431l5.2-2.62a24.878,24.878,0,0,1,5.625,5.623L44.931,41.3a19.641,19.641,0,0,1,1.435,3.458Z" transform="translate(0 0)" fill="#fff" fill-rule="evenodd"/>
          </g>
        </g>
      </g>
    </g>
  </g>
</svg>
