<svg xmlns="http://www.w3.org/2000/svg" width="510.3529" height="384.7753" viewBox="0 0 510.3529 384.7753"><defs><style>.a,.c{fill:none;}.a{stroke:#dfe5ed;stroke-width:0.25px;}.b,.d{fill:#fff;}.b{isolation:isolate;opacity:0.3;}.c{stroke:#fff;stroke-width:3px;}</style></defs><line class="a" x1="31.7369" y1="57.4221" x2="472.285" y2="57.4221"/><line class="a" x1="31.7369" y1="99.319" x2="472.285" y2="99.319"/><line class="a" x1="31.7369" y1="136.0608" x2="472.285" y2="136.0608"/><line class="a" x1="31.7369" y1="173.6771" x2="472.285" y2="173.6771"/><line class="a" x1="31.7369" y1="210.4189" x2="472.285" y2="210.4189"/><line class="a" x1="31.7369" y1="248.0352" x2="472.285" y2="248.0352"/><line class="a" x1="31.7369" y1="284.7759" x2="472.285" y2="284.7759"/><line class="a" x1="32.4127" y1="327.1612" x2="472.5122" y2="327.1612"/><line class="a" x1="32.4127" y1="359.8131" x2="472.5122" y2="359.8131"/><line class="a" x1="31.7369" y1="24.961" x2="472.285" y2="24.961"/><rect class="b" x="57.9661" y="290.2491" width="26.9743" height="69.5641"/><rect class="b" x="130.3696" y="239.1412" width="26.9743" height="120.672"/><rect class="b" x="201.3533" y="251.9184" width="26.9743" height="107.8948"/><rect class="b" x="273.7568" y="172.4165" width="28.394" height="187.3967"/><rect class="b" x="346.1602" y="185.1938" width="26.9743" height="174.6205"/><rect class="b" x="418.5637" y="92.9146" width="26.9743" height="266.8986"/><path class="c" d="M12.3529,350.7351c2.5237.7621,55.5182-62.3269,55.5182-62.3269l32.8063,13.4587,62.45-63.9306,44.382,17.6688s74.8658-76.55,79.9131-75.7062,65.6127,7.571,65.6127,7.571L495.47,94.9386"/><path class="d" d="M498,92.735l-5.6927,13.0026-8.3757-11.1165Z"/></svg>