<svg xmlns="http://www.w3.org/2000/svg" xmlns:xlink="http://www.w3.org/1999/xlink" width="510.3529" height="384.7753" viewBox="0 0 510.3529 384.7753"><defs><style>.a,.b,.f,.h,.i,.j,.l{fill:none;}.b,.l{stroke:#fff;}.c{fill:#8e9ab3;}.d,.m{fill:#fff;}.d{opacity:0.5;}.e{clip-path:url(#a);}.f,.h,.i,.j{stroke:#1e1e1e;}.f,.j{stroke-linecap:round;}.f{stroke-width:2px;}.g{fill:#1e1e1e;}.h,.i{stroke-miterlimit:10;stroke-width:0.25px;}.i{stroke-dasharray:5.7946 5.7946;}.j{stroke-dasharray:5;}.k{fill:#2a3280;}.l{stroke-width:5px;}</style><clipPath id="a"><rect class="a" x="322.9661" y="192.3876" width="150.8651" height="117.6349" rx="6.646"/></clipPath></defs><circle class="a" cx="247.8658" cy="192.3876" r="144.8837"/><circle class="b" cx="247.8658" cy="192.3876" r="144.5514"/><circle class="a" cx="249.8596" cy="192.3876" r="188.083"/><circle class="b" cx="249.8596" cy="192.3876" r="187.7506"/><rect class="c" x="75.0688" y="69.4359" width="332.302" height="213.3379"/><rect class="d" x="322.9661" y="192.3876" width="150.8651" height="117.6349"/><g class="e"><path class="f" d="M300.6546,280.8418s19.5082-8.7482,22.3115-15.7079,10.3326-18.2627,19.9381-13.0382S363.1,273.254,370.3616,268.7148s9.8741-26.9072,28.9376-19.34,26.3941-3.228,31.17-8.4724,14.8339-21.484,25.4211-10.8935"/><circle class="g" cx="455.8869" cy="230.2701" r="3.323"/></g><line class="h" x1="322.9661" y1="221.9625" x2="325.9661" y2="221.9625"/><line class="i" x1="331.7607" y1="221.9625" x2="467.9339" y2="221.9625"/><line class="h" x1="470.8312" y1="221.9625" x2="473.8312" y2="221.9625"/><line class="h" x1="322.9661" y1="251.2051" x2="325.9661" y2="251.2051"/><line class="i" x1="331.7607" y1="251.2051" x2="467.9339" y2="251.2051"/><line class="h" x1="470.8312" y1="251.2051" x2="473.8312" y2="251.2051"/><line class="h" x1="322.9661" y1="280.4477" x2="325.9661" y2="280.4477"/><line class="i" x1="331.7607" y1="280.4477" x2="467.9339" y2="280.4477"/><line class="h" x1="470.8312" y1="280.4477" x2="473.8312" y2="280.4477"/><line class="j" x1="456.8838" y1="238.5776" x2="456.8838" y2="310.3549"/><line class="j" x1="411.6907" y1="259.1803" x2="411.6907" y2="310.3549"/><line class="j" x1="367.8269" y1="275.7954" x2="367.8269" y2="310.3549"/><rect class="k" x="36.5217" y="218.9718" width="105.0074" height="105.0074"/><circle class="a" cx="89.0255" cy="271.4755" r="36.5532"/><circle class="l" cx="89.0255" cy="271.4755" r="34.8917"/><path class="m" d="M97.6653,271.8078,81.05,281.4446V262.1711Z"/><rect class="m" x="161.4673" y="91.3678" width="86.3985" height="81.0817"/><rect class="m" x="261.1579" y="91.3678" width="86.3985" height="81.0817"/><rect class="m" x="360.8485" y="91.3678" width="86.3985" height="81.0817"/><circle class="m" cx="118.268" cy="84.7218" r="3.323"/><circle class="m" cx="108.299" cy="84.7218" r="3.323"/><circle class="k" cx="98.3299" cy="84.7218" r="3.323"/><circle class="m" cx="137.5416" cy="41.5225" r="7.9752"/><circle class="m" cx="348.8856" cy="351.228" r="3.9876"/><rect class="m" x="161.4673" y="192.3876" width="146.8775" height="47.8515"/><path class="k" d="M232.9469,321.7675V310.6886l-8.4844,5.2184Z"/><path class="k" d="M52.8392,133.02V121.941L44.3548,127.16Z"/><path class="k" d="M439.7963,49.4991V60.578l8.4843-5.2185Z"/><path class="k" d="M169.95,367.6252v-11.079l-8.4843,5.2185Z"/></svg>